<?xml version="1.0" standalone="no"?>
<!DOCTYPE svg PUBLIC "-//W3C//DTD SVG 20010904//EN"
 "http://www.w3.org/TR/2001/REC-SVG-20010904/DTD/svg10.dtd">
<svg version="1.0" xmlns="http://www.w3.org/2000/svg"
 width="98.000000pt" height="98.000000pt" viewBox="0 0 98.000000 98.000000"
 preserveAspectRatio="xMidYMid meet">
<metadata>
Created by potrace 1.11, written by Peter Selinger 2001-2013
</metadata>
<g transform="translate(0.000000,98.000000) scale(0.100000,-0.100000)"
fill="#000000" stroke="none">
<path d="M514 905 c-4 -8 -12 -15 -19 -15 -7 0 -18 -7 -25 -15 -7 -8 -16 -13
-20 -10 -5 3 -11 -1 -13 -7 -3 -8 -6 -6 -6 5 -1 10 -6 15 -11 12 -6 -4 -8 -11
-4 -16 3 -6 -3 -5 -14 2 -12 7 -18 18 -14 24 6 10 -21 -9 -47 -33 -11 -10 -16
-10 -29 0 -12 10 -14 10 -8 1 4 -7 1 -23 -6 -35 -16 -29 -16 -41 -3 -51 6 -5
3 -7 -7 -3 -10 3 -18 1 -18 -5 0 -6 -4 -7 -10 -4 -5 3 -10 11 -10 16 0 6 5 7
12 3 7 -5 8 -3 3 6 -5 8 -4 11 2 7 5 -3 9 4 7 16 -1 12 -3 26 -3 31 -2 24 -19
-20 -24 -64 -1 -8 -8 -19 -15 -23 -11 -7 -11 -12 2 -26 8 -9 15 -25 14 -36 0
-11 2 -32 5 -47 4 -22 2 -26 -11 -21 -15 6 -15 5 -3 -10 12 -15 9 -21 -11 -19
-3 1 -9 -6 -12 -14 -4 -11 -2 -15 7 -11 7 3 13 -3 13 -14 0 -12 -4 -15 -11 -9
-7 6 -16 5 -23 -2 -17 -17 -15 -33 2 -19 18 15 34 -5 17 -22 -9 -9 -10 -7 -5
8 7 18 6 18 -9 6 -9 -7 -14 -18 -10 -25 15 -24 12 -36 -7 -26 -20 11 -39 -4
-20 -15 5 -3 10 -4 10 -1 0 3 9 -2 20 -11 34 -29 110 -34 158 -10 17 8 35 11
42 7 11 -7 39 -5 85 4 11 3 26 5 33 5 7 1 11 4 9 9 -3 4 12 7 33 6 22 0 37 3
34 8 -3 4 0 8 7 8 6 0 18 8 25 18 13 16 14 16 7 -3 -3 -11 -3 -17 1 -13 8 7
14 31 15 62 1 12 6 16 15 13 11 -4 13 -1 9 10 -4 11 -2 14 5 9 8 -5 12 0 12
12 0 19 29 52 46 52 5 0 1 -7 -9 -14 -17 -13 -16 -14 7 -12 20 1 22 4 14 19
-7 13 -4 27 11 50 11 18 20 35 20 40 1 4 1 8 2 10 1 1 2 17 4 36 2 22 0 29 -6
20 -7 -12 -9 -11 -10 1 -1 8 -1 19 0 23 1 5 -3 6 -8 3 -5 -4 -12 2 -14 11 -4
16 -5 16 -6 1 0 -9 4 -20 9 -23 6 -3 10 -10 10 -16 0 -13 -27 -11 -36 3 -5 7
-3 8 7 2 11 -6 10 -2 -2 16 -18 27 -39 38 -39 20 0 -6 5 -8 12 -4 8 5 9 2 5
-10 -4 -10 -3 -15 3 -11 5 3 7 -1 4 -9 -8 -21 29 -39 46 -23 12 10 12 9 1 -6
-13 -16 -15 -16 -47 4 -19 11 -38 18 -44 14 -6 -4 -9 -1 -8 7 2 7 -3 12 -10
10 -8 -1 -11 2 -8 7 5 8 -21 26 -35 23 -8 -1 -4 36 4 44 7 7 11 -11 8 -29 -1
-5 3 -6 8 -3 5 4 14 -2 20 -11 6 -11 11 -13 11 -5 0 7 5 10 12 6 7 -4 8 -3 4
4 -4 7 0 12 11 13 11 0 13 3 5 6 -7 3 -20 -1 -29 -9 -15 -11 -16 -11 -10 4 3
10 1 20 -5 24 -7 4 -8 3 -4 -4 4 -7 2 -12 -3 -12 -6 0 -11 6 -11 14 0 20 -21
24 -50 9 -24 -12 -24 -14 0 -17 6 0 10 -4 10 -8 0 -5 0 -10 0 -14 0 -3 -15 7
-34 21 -22 17 -40 23 -52 19 -24 -9 -16 0 15 16 13 6 21 8 18 3 -3 -5 3 -10
14 -10 10 -1 19 3 19 8 0 6 5 7 10 4 6 -3 10 -1 10 4 0 14 -13 14 -28 -1 -8
-8 -12 -8 -12 -1 0 18 -30 24 -36 8z m-128 -47 c4 -7 3 -8 -4 -4 -7 4 -12 3
-12 -3 0 -5 -9 -13 -20 -16 -11 -4 -27 -18 -35 -33 -16 -27 -16 -27 -9 -2 4
14 10 26 15 28 5 2 19 12 31 22 28 23 25 23 34 8z m11 -33 c0 -8 -4 -12 -9 -9
-5 3 -6 10 -3 15 9 13 12 11 12 -6z m148 -4 c3 -5 2 -12 -3 -15 -5 -3 -9 1 -9
9 0 17 3 19 12 6z m-161 -30 c-4 -3 -9 -1 -11 6 -2 7 -12 9 -21 6 -14 -4 -15
-3 -2 5 15 11 47 -5 34 -17z m-42 -8 c-6 -2 -9 -10 -6 -15 4 -7 2 -8 -5 -4
-13 9 -5 26 12 25 9 0 8 -2 -1 -6z m285 -10 c0 -10 -4 -10 -16 -1 -9 7 -18 13
-20 15 -2 1 5 1 16 0 11 0 20 -7 20 -14z m60 -35 c-3 -8 -6 -5 -6 6 -1 11 2
17 5 13 3 -3 4 -12 1 -19z m83 -3 c-7 -8 -17 -15 -23 -15 -6 0 -2 7 9 15 25
19 30 19 14 0z m-100 -145 c0 -5 -2 -10 -4 -10 -3 0 -8 5 -11 10 -3 6 -1 10 4
10 6 0 11 -4 11 -10z m-86 -12 c-5 -8 0 -7 11 2 10 8 16 10 12 3 -4 -6 -1 -14
5 -16 7 -3 1 -6 -14 -6 -19 -1 -28 4 -28 14 0 8 5 15 11 15 5 0 7 -6 3 -12z
m64 -13 c-3 -3 -9 2 -12 12 -6 14 -5 15 5 6 7 -7 10 -15 7 -18z m-23 -37 c-3
-13 -14 -31 -26 -40 -23 -19 -75 -25 -64 -8 4 6 12 10 18 9 25 -3 38 1 32 10
-3 6 3 14 12 20 16 9 16 10 -4 8 -12 0 -21 -4 -21 -7 2 -20 -4 -30 -13 -24 -8
5 -8 9 1 14 6 4 12 11 13 16 1 5 11 10 21 11 11 2 22 6 25 8 8 9 10 5 6 -17z
m-365 -21 c0 -2 -10 -12 -22 -23 l-23 -19 19 23 c18 21 26 27 26 19z m198 -40
c10 4 13 2 8 -5 -11 -18 -33 -14 -41 6 -5 13 -3 14 6 5 6 -6 18 -9 27 -6z"/>
<path d="M335 880 c-4 -6 -11 -7 -17 -4 -7 4 -8 2 -4 -5 6 -9 11 -9 22 0 14
11 18 19 10 19 -3 0 -8 -5 -11 -10z"/>
<path d="M715 840 c3 -5 8 -10 11 -10 2 0 4 5 4 10 0 6 -5 10 -11 10 -5 0 -7
-4 -4 -10z"/>
<path d="M660 805 c0 -2 9 -9 20 -15 16 -9 18 -8 14 5 -5 13 -34 22 -34 10z"/>
<path d="M218 708 c8 -9 9 -17 3 -20 -5 -2 -4 -11 4 -22 13 -17 14 -16 11 8
-2 15 -9 32 -16 39 -12 10 -12 9 -2 -5z"/>
<path d="M176 658 c3 -4 11 -5 19 -1 21 7 19 12 -4 10 -11 0 -18 -5 -15 -9z"/>
<path d="M199 645 c-5 -20 -4 -32 4 -42 12 -17 -5 -17 -21 -1 -9 9 -12 9 -12
0 0 -7 4 -12 8 -12 5 0 8 -12 7 -27 -1 -20 -8 -29 -27 -34 -15 -4 -30 -4 -34
0 -4 3 -4 0 0 -7 4 -7 16 -10 25 -7 11 3 18 0 18 -9 0 -9 -8 -13 -20 -11 -15
3 -16 1 -8 -9 14 -17 64 -19 54 -2 -13 21 -12 41 4 58 9 10 13 18 9 18 -4 0
-2 9 4 20 7 12 16 18 23 13 8 -4 8 -1 -1 9 -11 14 -10 18 5 28 16 10 16 11 1
6 -10 -3 -18 -1 -18 4 0 10 -19 14 -21 5z m17 -31 c1 -9 0 -13 -4 -10 -3 4 -7
14 -8 22 -1 9 0 13 4 10 3 -4 7 -14 8 -22z"/>
<path d="M153 575 c0 -8 4 -15 9 -15 4 0 8 4 8 9 0 6 -4 12 -8 15 -5 3 -9 -1
-9 -9z"/>
<path d="M710 570 c6 -11 13 -20 16 -20 2 0 0 9 -6 20 -6 11 -13 20 -16 20 -2
0 0 -9 6 -20z"/>
<path d="M730 580 c0 -5 5 -10 10 -10 6 0 10 5 10 10 0 6 -4 10 -10 10 -5 0
-10 -4 -10 -10z"/>
<path d="M700 540 c8 -5 20 -10 25 -10 6 0 3 5 -5 10 -8 5 -19 10 -25 10 -5 0
-3 -5 5 -10z"/>
<path d="M660 506 c0 -2 7 -9 15 -16 13 -11 14 -10 9 4 -5 14 -24 23 -24 12z"/>
<path d="M613 445 c0 -8 4 -12 9 -9 5 3 6 10 3 15 -9 13 -12 11 -12 -6z"/>
<path d="M553 440 c-13 -5 -23 -11 -23 -14 0 -7 40 6 46 15 6 10 6 10 -23 -1z"/>
<path d="M650 446 c0 -2 7 -7 16 -10 8 -3 12 -2 9 4 -6 10 -25 14 -25 6z"/>
<path d="M527 373 c-4 -3 -7 -15 -7 -25 0 -10 -7 -21 -15 -24 -8 -4 -15 -10
-15 -16 0 -5 4 -7 9 -4 5 3 4 -13 -2 -36 l-11 -43 -11 27 c-6 15 -21 39 -33
53 -22 26 -31 48 -11 28 15 -15 39 -5 39 14 0 12 -7 14 -32 9 -39 -8 -59 -25
-102 -90 -51 -76 -92 -106 -115 -83 -16 16 -14 27 7 27 33 0 82 38 82 64 0 27
-24 56 -46 56 -35 0 -87 -43 -100 -82 -10 -32 14 -76 46 -83 31 -7 100 17 100
34 0 19 17 12 23 -9 11 -41 78 -45 120 -6 l24 22 9 -20 c11 -26 56 -33 77 -12
19 20 26 20 46 2 26 -23 63 -22 111 3 50 25 85 64 76 86 -8 22 -28 9 -59 -40
-36 -57 -97 -75 -97 -29 0 8 5 12 10 9 6 -3 16 -3 23 2 6 4 18 8 25 9 16 3 41
34 42 52 0 31 -21 52 -53 52 -38 0 -69 -24 -93 -73 -21 -42 -44 -67 -60 -67
-10 0 -10 11 3 53 8 28 22 59 30 68 9 12 11 18 3 21 -8 2 -8 11 -1 31 10 25 8
27 -13 27 -12 0 -26 -3 -29 -7z m-250 -107 c-8 -11 -23 -26 -35 -34 -20 -13
-22 -13 -22 4 0 11 10 35 21 54 20 32 22 33 35 15 12 -16 12 -22 1 -39z m141
24 c19 -52 -18 -127 -55 -113 -22 9 -14 23 12 23 16 0 25 6 25 15 0 22 -24 29
-50 15 -20 -11 -21 -10 -9 12 18 34 52 78 60 78 4 0 12 -13 17 -30z m290 -3
c2 -26 -31 -67 -53 -67 -11 0 -12 6 -5 24 24 64 54 86 58 43z"/>
</g>
</svg>
